<svg width="957" height="296" viewBox="0 0 957 296" fill="none" xmlns="http://www.w3.org/2000/svg">
<path d="M0 80C0 35.8172 35.8172 0 80 0H957V296H0V80Z" fill="#0E1B3D"/>
<g filter="url(#filter0_i)">
<path d="M608.919 102.613C565.302 45.0986 479.929 6.57778 433.907 0H273.479C222.194 0 193.122 28.7546 185.64 58.3837C185.174 60.2292 185 62.1325 185 64.0358V176.613V296H957L914 286L843 269L749 240C693.579 224.333 658.506 168 608.919 102.613Z" fill="#132151"/>
<path d="M608.919 102.613C565.302 45.0986 479.929 6.57778 433.907 0H273.479C222.194 0 193.122 28.7546 185.64 58.3837C185.174 60.2292 185 62.1325 185 64.0358V176.613V296H957L914 286L843 269L749 240C693.579 224.333 658.506 168 608.919 102.613Z" fill="url(#paint0_linear)"/>
</g>
<g filter="url(#filter1_i)">
<path d="M423.919 102.613C380.302 45.0986 294.929 6.57778 248.907 0H88.4786C37.1944 0 8.12174 28.7546 0.640254 58.3837C0.174272 60.2292 0 62.1325 0 64.0358V176.613V296H772L729 286L658 269L564 240C508.579 224.333 473.506 168 423.919 102.613Z" fill="#132151"/>
<path d="M423.919 102.613C380.302 45.0986 294.929 6.57778 248.907 0H88.4786C37.1944 0 8.12174 28.7546 0.640254 58.3837C0.174272 60.2292 0 62.1325 0 64.0358V176.613V296H772L729 286L658 269L564 240C508.579 224.333 473.506 168 423.919 102.613Z" fill="url(#paint1_linear)"/>
</g>
<g filter="url(#filter2_i)">
<path d="M203 174C133.356 126.609 57 116 0 142.344V296H307C281 242 291 233.882 203 174Z" fill="#132151"/>
<path d="M203 174C133.356 126.609 57 116 0 142.344V296H307C281 242 291 233.882 203 174Z" fill="url(#paint2_linear)"/>
</g>
<defs>
<filter id="filter0_i" x="185" y="0" width="775" height="296" filterUnits="userSpaceOnUse" color-interpolation-filters="sRGB">
<feFlood flood-opacity="0" result="BackgroundImageFix"/>
<feBlend mode="normal" in="SourceGraphic" in2="BackgroundImageFix" result="shape"/>
<feColorMatrix in="SourceAlpha" type="matrix" values="0 0 0 0 0 0 0 0 0 0 0 0 0 0 0 0 0 0 127 0" result="hardAlpha"/>
<feOffset dx="3"/>
<feGaussianBlur stdDeviation="2"/>
<feComposite in2="hardAlpha" operator="arithmetic" k2="-1" k3="1"/>
<feColorMatrix type="matrix" values="0 0 0 0 0 0 0 0 0 0 0 0 0 0 0 0 0 0 0.25 0"/>
<feBlend mode="normal" in2="shape" result="effect1_innerShadow"/>
</filter>
<filter id="filter1_i" x="-6" y="0" width="778" height="299" filterUnits="userSpaceOnUse" color-interpolation-filters="sRGB">
<feFlood flood-opacity="0" result="BackgroundImageFix"/>
<feBlend mode="normal" in="SourceGraphic" in2="BackgroundImageFix" result="shape"/>
<feColorMatrix in="SourceAlpha" type="matrix" values="0 0 0 0 0 0 0 0 0 0 0 0 0 0 0 0 0 0 127 0" result="hardAlpha"/>
<feOffset dx="-6" dy="3"/>
<feGaussianBlur stdDeviation="56"/>
<feComposite in2="hardAlpha" operator="arithmetic" k2="-1" k3="1"/>
<feColorMatrix type="matrix" values="0 0 0 0 0 0 0 0 0 0 0 0 0 0 0 0 0 0 0.25 0"/>
<feBlend mode="normal" in2="shape" result="effect1_innerShadow"/>
</filter>
<filter id="filter2_i" x="0" y="123.251" width="308" height="172.749" filterUnits="userSpaceOnUse" color-interpolation-filters="sRGB">
<feFlood flood-opacity="0" result="BackgroundImageFix"/>
<feBlend mode="normal" in="SourceGraphic" in2="BackgroundImageFix" result="shape"/>
<feColorMatrix in="SourceAlpha" type="matrix" values="0 0 0 0 0 0 0 0 0 0 0 0 0 0 0 0 0 0 127 0" result="hardAlpha"/>
<feOffset dx="1" dy="-5"/>
<feGaussianBlur stdDeviation="12.5"/>
<feComposite in2="hardAlpha" operator="arithmetic" k2="-1" k3="1"/>
<feColorMatrix type="matrix" values="0 0 0 0 0 0 0 0 0 0 0 0 0 0 0 0 0 0 0.25 0"/>
<feBlend mode="normal" in2="shape" result="effect1_innerShadow"/>
</filter>
<linearGradient id="paint0_linear" x1="-113" y1="140" x2="571" y2="190" gradientUnits="userSpaceOnUse">
<stop stop-color="#2971DD"/>
<stop offset="1" stop-color="#17396D" stop-opacity="0"/>
</linearGradient>
<linearGradient id="paint1_linear" x1="-185" y1="208" x2="471" y2="160" gradientUnits="userSpaceOnUse">
<stop stop-color="#3D73C5"/>
<stop offset="1" stop-color="#17396D" stop-opacity="0"/>
</linearGradient>
<linearGradient id="paint2_linear" x1="365" y1="374" x2="-357" y2="-284" gradientUnits="userSpaceOnUse">
<stop stop-color="#12265A"/>
<stop offset="0.484375" stop-color="#354F92" stop-opacity="0"/>
</linearGradient>
</defs>
</svg>
